<?xml version="1.0" encoding="UTF-8"?>
<!DOCTYPE svg PUBLIC "-//W3C//DTD SVG 1.1//EN" "http://www.w3.org/Graphics/SVG/1.1/DTD/svg11.dtd">
<!-- Creator: CorelDRAW 2021 (64-Bit) -->
<svg xmlns="http://www.w3.org/2000/svg" xml:space="preserve" width="8.5in" height="11in" version="1.1" style="shape-rendering:geometricPrecision; text-rendering:geometricPrecision; image-rendering:optimizeQuality; fill-rule:evenodd; clip-rule:evenodd"
viewBox="0 0 8500 11000"
 xmlns:xlink="http://www.w3.org/1999/xlink"
 xmlns:xodm="http://www.corel.com/coreldraw/odm/2003">
 <defs>
  <style type="text/css">
   <![CDATA[
    .str0 {stroke:black;stroke-width:20.83;stroke-linecap:round;stroke-linejoin:round;stroke-miterlimit:2.61313}
    .fil2 {fill:none;fill-rule:nonzero}
    .fil0 {fill:#4AA2D0}
    .fil1 {fill:#4AA2D0;fill-rule:nonzero}
   ]]>
  </style>
 </defs>
 <g id="Layer_x0020_1">
  <metadata id="CorelCorpID_0Corel-Layer"/>
  <g id="_2042958633696">
   <polygon class="fil0 str0" points="-123.9,4256.37 -115.83,4239.48 -116.64,4243.43 -117.43,4247.09 -118.2,4250.45 -118.96,4253.52 -119.7,4256.3 -120.43,4258.79 -121.14,4260.99 -121.83,4262.9 -172.59,4398.06 -194.84,4454.59 -131.4,4285.65 -130.53,4283.26 -129.65,4280.51 -128.74,4277.4 -127.81,4273.93 -126.87,4270.09 -125.9,4265.88 -124.91,4261.31 "/>
   <polygon class="fil0 str0" points="-303.12,4256.37 -259.2,4239.48 -259.03,4242.14 -258.86,4244.83 -258.71,4247.56 -258.57,4250.31 -258.43,4253.09 -258.31,4255.91 -258.2,4258.74 -258.11,4261.61 -258.02,4264.5 -257.94,4267.43 -257.88,4270.38 -257.83,4273.36 -257.79,4276.37 -257.76,4279.41 -257.75,4282.47 -257.74,4285.57 -257.74,4398.06 -301.29,4454.59 -301.29,4313.98 -301.3,4310.11 -301.31,4306.28 -301.35,4302.48 -301.4,4298.72 -301.46,4295 -301.54,4291.31 -301.64,4287.65 -301.74,4284.03 -301.87,4280.45 -302,4276.9 -302.15,4273.39 -302.32,4269.91 -302.5,4266.47 -302.69,4263.07 -302.9,4259.7 "/>
   <polygon class="fil0 str0" points="-343.45,4214.98 -291.47,4206.37 -238.09,4206.37 -276.73,4214.98 "/>
   <polygon class="fil0 str0" points="-276.73,4214.98 -238.09,4206.37 -193.3,4325.79 -191.96,4329.45 -190.74,4333.01 -189.63,4336.46 -188.65,4339.8 -187.78,4343.03 -187.03,4346.16 -186.4,4349.18 -185.87,4352.1 -211.45,4397.15 -212.11,4393.5 -212.9,4389.72 -213.84,4385.81 -214.93,4381.77 -216.15,4377.59 -217.53,4373.28 -219.06,4368.84 -220.73,4364.26 "/>
   <polygon class="fil0 str0" points="-211.45,4397.15 -185.87,4352.1 -184.98,4352.1 -210.34,4397.15 "/>
   <polygon class="fil0 str0" points="-143.78,4214.98 -131.74,4206.37 -79.92,4206.37 -79.01,4214.98 "/>
   <polygon class="fil0 str0" points="130.49,4454.59 87.68,4398.06 72.17,4352.24 111.1,4397.31 "/>
   <polygon class="fil0 str0" points="-48.4,4454.59 -55.43,4398.06 15.55,4206.37 40.33,4214.98 "/>
   <polygon class="fil0 str0" points="40.33,4214.98 15.55,4206.37 58.39,4206.37 93.88,4214.98 "/>
   <polygon class="fil0 str0" points="99.55,4360.54 62.93,4322.81 39.51,4253.39 39.14,4252.24 38.77,4250.84 38.4,4249.21 38.03,4247.34 37.65,4245.24 37.27,4242.9 36.88,4240.33 36.48,4237.52 66.49,4253.93 66.99,4257.43 67.47,4260.64 67.95,4263.57 68.42,4266.2 68.89,4268.54 69.35,4270.57 69.81,4272.32 70.27,4273.76 "/>
   <polygon class="fil0 str0" points="31.83,4360.54 8.75,4322.81 62.93,4322.81 99.55,4360.54 "/>
   <polygon class="fil0 str0" points="258.94,4319.48 190.44,4289.97 254.61,4289.97 339.16,4319.48 "/>
   <polygon class="fil0 str0" points="212.55,4454.59 153.33,4398.06 153.33,4206.37 212.55,4214.98 "/>
   <polygon class="fil0 str0" points="212.55,4214.98 153.33,4206.37 260.08,4206.37 345.99,4214.98 "/>
  </g>
  <path class="fil1" d="M-124.9 4454.59l0 -148.44c0,-10.83 0.67,-27.44 1.94,-49.78l-0.94 0c-2.72,13.67 -5.22,23.39 -7.5,29.28l-63.44 168.94 -35.33 0 -64.28 -167.5c-1.67,-4.33 -4.17,-14.56 -7.5,-30.72l-1.17 0c1.22,17.67 1.83,36.89 1.83,57.61l0 140.61 -42.17 0 0 -239.61 66.72 0 56 149.28c4.67,12.39 7.72,23.33 9.28,32.89l1.11 0c2.39,-9.44 5.78,-20.5 10.11,-33.22l56.44 -148.94 64.78 0 0 239.61 -45.89 0zm306 0l-50.61 0 -19.39 -57.28 -90 0 -18.89 57.28 -50.61 0 88.72 -239.61 53.56 0 87.22 239.61zm-81.56 -94.06l-29.28 -86.78c-1.22,-3.44 -2.44,-10.11 -3.78,-19.83l-1.11 0c-0.89,7.28 -2.22,13.78 -4.06,19.5l-29.5 87.11 67.72 0zm246.44 -106.94l-87.06 0 0 65.89 80.22 0 0 38.11 -80.22 0 0 97 -46.39 0 0 -239.61 133.44 0 0 38.61z"/>
  <path id="_1" class="fil2 str0" d="M-124.9 4454.59l0 -148.44c0,-10.83 0.67,-27.44 1.94,-49.78l-0.94 0c-2.72,13.67 -5.22,23.39 -7.5,29.28l-63.44 168.94 -35.33 0 -64.28 -167.5c-1.67,-4.33 -4.17,-14.56 -7.5,-30.72l-1.17 0c1.22,17.67 1.83,36.89 1.83,57.61l0 140.61 -42.17 0 0 -239.61 66.72 0 56 149.28c4.67,12.39 7.72,23.33 9.28,32.89l1.11 0c2.39,-9.44 5.78,-20.5 10.11,-33.22l56.44 -148.94 64.78 0 0 239.61 -45.89 0zm306 0l-50.61 0 -19.39 -57.28 -90 0 -18.89 57.28 -50.61 0 88.72 -239.61 53.56 0 87.22 239.61zm-81.56 -94.06l-29.28 -86.78c-1.22,-3.44 -2.44,-10.11 -3.78,-19.83l-1.11 0c-0.89,7.28 -2.22,13.78 -4.06,19.5l-29.5 87.11 67.72 0zm246.44 -106.94l-87.06 0 0 65.89 80.22 0 0 38.11 -80.22 0 0 97 -46.39 0 0 -239.61 133.44 0 0 38.61z"/>
 </g>
</svg>
